<svg width="60" height="40" viewBox="0 0 60 40" fill="none" xmlns="http://www.w3.org/2000/svg">
<rect width="60" height="40" rx="3" fill="#20A8D8"/>
<g clip-path="url(#clip0_1035_3610)">
<path fill-rule="evenodd" clip-rule="evenodd" d="M25 10C30.5228 10 35 14.4772 35 20C35 21.8223 34.5123 23.5305 33.6607 25.0018L35 30L30.0017 28.6608C28.5304 29.5124 26.8222 30 25 30C19.4772 30 15 25.5228 15 20C15 14.4772 19.4772 10 25 10ZM23.8859 21.413V20.8424C23.8859 20.4099 23.9742 20.043 24.1508 19.7441C24.3273 19.4475 24.6422 19.1553 25.0928 18.8723C25.4506 18.6481 25.7087 18.4443 25.8649 18.2631C26.0235 18.082 26.1004 17.8736 26.1004 17.6404C26.1004 17.4547 26.0167 17.3075 25.8491 17.1988C25.6815 17.0924 25.4619 17.0379 25.1924 17.0379C24.5243 17.0379 23.7431 17.2735 22.8486 17.7467L21.9269 15.942C23.0274 15.3147 24.1779 15 25.3781 15C26.363 15 27.1375 15.2174 27.6992 15.6499C28.2608 16.0824 28.5438 16.6735 28.5438 17.4207C28.5438 17.9552 28.417 18.4194 28.1679 18.809C27.9189 19.2006 27.518 19.5721 26.97 19.9207C26.5059 20.222 26.2138 20.4416 26.0983 20.5797C25.9804 20.7201 25.9217 20.8854 25.9217 21.0756V21.413H23.8859ZM23.6005 23.7319C23.6005 23.3266 23.7183 23.0118 23.9538 22.79C24.1916 22.5703 24.5402 22.4592 25 22.4592C25.4416 22.4592 25.7813 22.5702 26.0168 22.7944C26.2545 23.0186 26.3723 23.3311 26.3723 23.7319C26.3723 24.135 26.2501 24.4475 26.0054 24.6695C25.7586 24.889 25.4235 25.0001 25 25.0001C24.5607 25.0001 24.2188 24.8914 23.9719 24.6717C23.7229 24.4521 23.6005 24.1396 23.6005 23.732V23.7319Z" fill="white"/>
</g>
<defs>
<clipPath id="clip0_1035_3610">
<rect width="20" height="20" fill="white" transform="translate(15 10)"/>
</clipPath>
</defs>
</svg>
